<mxfile host="app.diagrams.net" modified="2024-06-30T15:40:03.179Z" agent="Mozilla/5.0 (Macintosh; Intel Mac OS X 10_15_7) AppleWebKit/537.36 (KHTML, like Gecko) Chrome/125.0.0.0 Safari/537.36 Edg/125.0.0.0" etag="I5Zroxe-14gUd82YlVR-" version="24.6.4" type="github">
  <diagram id="prtHgNgQTEPvFCAcTncT" name="Page-1">
    <mxGraphModel dx="1258" dy="751" grid="1" gridSize="10" guides="1" tooltips="1" connect="1" arrows="1" fold="1" page="1" pageScale="1" pageWidth="827" pageHeight="1169" math="0" shadow="0">
      <root>
        <mxCell id="0" />
        <mxCell id="1" parent="0" />
        <mxCell id="4XdVAq216Ocn9cHO9VWG-1" value="还款试算" style="swimlane;childLayout=stackLayout;resizeParent=1;resizeParentMax=0;startSize=20;html=1;labelBackgroundColor=none;fillColor=#B2C9AB;strokeColor=#788AA3;fontColor=#46495D;" vertex="1" parent="1">
          <mxGeometry x="110.00000000000045" y="120" width="940" height="770" as="geometry" />
        </mxCell>
        <mxCell id="4XdVAq216Ocn9cHO9VWG-2" value="apiopfcore" style="swimlane;startSize=20;html=1;labelBackgroundColor=none;fillColor=#B2C9AB;strokeColor=#788AA3;fontColor=#46495D;" vertex="1" parent="4XdVAq216Ocn9cHO9VWG-1">
          <mxGeometry y="20" width="520" height="750" as="geometry" />
        </mxCell>
        <mxCell id="4XdVAq216Ocn9cHO9VWG-7" value="" style="edgeStyle=orthogonalEdgeStyle;rounded=0;orthogonalLoop=1;jettySize=auto;html=1;strokeColor=#788AA3;fontColor=#46495D;fillColor=#B2C9AB;" edge="1" parent="4XdVAq216Ocn9cHO9VWG-2" source="4XdVAq216Ocn9cHO9VWG-5" target="4XdVAq216Ocn9cHO9VWG-6">
          <mxGeometry relative="1" as="geometry" />
        </mxCell>
        <mxCell id="4XdVAq216Ocn9cHO9VWG-5" value="还款试算接口" style="rounded=0;whiteSpace=wrap;html=1;labelBackgroundColor=none;fillColor=#B2C9AB;strokeColor=#788AA3;fontColor=#46495D;" vertex="1" parent="4XdVAq216Ocn9cHO9VWG-2">
          <mxGeometry x="114.99999999999955" y="50" width="120" height="60" as="geometry" />
        </mxCell>
        <mxCell id="4XdVAq216Ocn9cHO9VWG-12" value="" style="edgeStyle=orthogonalEdgeStyle;rounded=0;orthogonalLoop=1;jettySize=auto;html=1;strokeColor=#788AA3;fontColor=#46495D;fillColor=#B2C9AB;" edge="1" parent="4XdVAq216Ocn9cHO9VWG-2" source="4XdVAq216Ocn9cHO9VWG-6" target="4XdVAq216Ocn9cHO9VWG-11">
          <mxGeometry relative="1" as="geometry" />
        </mxCell>
        <mxCell id="4XdVAq216Ocn9cHO9VWG-6" value="查询是否有要还款的账单" style="whiteSpace=wrap;html=1;fillColor=#B2C9AB;strokeColor=#788AA3;fontColor=#46495D;rounded=0;labelBackgroundColor=none;" vertex="1" parent="4XdVAq216Ocn9cHO9VWG-2">
          <mxGeometry x="114.99999999999955" y="170" width="120" height="60" as="geometry" />
        </mxCell>
        <mxCell id="4XdVAq216Ocn9cHO9VWG-14" value="" style="edgeStyle=orthogonalEdgeStyle;rounded=0;orthogonalLoop=1;jettySize=auto;html=1;strokeColor=#788AA3;fontColor=#46495D;fillColor=#B2C9AB;" edge="1" parent="4XdVAq216Ocn9cHO9VWG-2" source="4XdVAq216Ocn9cHO9VWG-11" target="4XdVAq216Ocn9cHO9VWG-13">
          <mxGeometry relative="1" as="geometry" />
        </mxCell>
        <mxCell id="4XdVAq216Ocn9cHO9VWG-15" value="否" style="edgeLabel;html=1;align=center;verticalAlign=middle;resizable=0;points=[];strokeColor=#788AA3;fontColor=#46495D;fillColor=#B2C9AB;" vertex="1" connectable="0" parent="4XdVAq216Ocn9cHO9VWG-14">
          <mxGeometry x="-0.105" y="-2" relative="1" as="geometry">
            <mxPoint as="offset" />
          </mxGeometry>
        </mxCell>
        <mxCell id="4XdVAq216Ocn9cHO9VWG-17" value="" style="edgeStyle=orthogonalEdgeStyle;rounded=0;orthogonalLoop=1;jettySize=auto;html=1;strokeColor=#788AA3;fontColor=#46495D;fillColor=#B2C9AB;" edge="1" parent="4XdVAq216Ocn9cHO9VWG-2" source="4XdVAq216Ocn9cHO9VWG-11" target="4XdVAq216Ocn9cHO9VWG-16">
          <mxGeometry relative="1" as="geometry" />
        </mxCell>
        <mxCell id="4XdVAq216Ocn9cHO9VWG-11" value="是否有需要还款的计划" style="rhombus;whiteSpace=wrap;html=1;fillColor=#B2C9AB;strokeColor=#788AA3;fontColor=#46495D;rounded=0;labelBackgroundColor=none;" vertex="1" parent="4XdVAq216Ocn9cHO9VWG-2">
          <mxGeometry x="87.5" y="300" width="175" height="80" as="geometry" />
        </mxCell>
        <mxCell id="4XdVAq216Ocn9cHO9VWG-13" value="返回&lt;div&gt;此订单无应还金额&lt;/div&gt;" style="whiteSpace=wrap;html=1;fillColor=#B2C9AB;strokeColor=#788AA3;fontColor=#46495D;rounded=0;labelBackgroundColor=none;" vertex="1" parent="4XdVAq216Ocn9cHO9VWG-2">
          <mxGeometry x="350" y="310" width="120" height="60" as="geometry" />
        </mxCell>
        <mxCell id="4XdVAq216Ocn9cHO9VWG-19" value="否" style="edgeStyle=orthogonalEdgeStyle;rounded=0;orthogonalLoop=1;jettySize=auto;html=1;strokeColor=#788AA3;fontColor=#46495D;fillColor=#B2C9AB;" edge="1" parent="4XdVAq216Ocn9cHO9VWG-2" source="4XdVAq216Ocn9cHO9VWG-16" target="4XdVAq216Ocn9cHO9VWG-18">
          <mxGeometry relative="1" as="geometry" />
        </mxCell>
        <mxCell id="4XdVAq216Ocn9cHO9VWG-21" value="" style="edgeStyle=orthogonalEdgeStyle;rounded=0;orthogonalLoop=1;jettySize=auto;html=1;strokeColor=#788AA3;fontColor=#46495D;fillColor=#B2C9AB;" edge="1" parent="4XdVAq216Ocn9cHO9VWG-2" source="4XdVAq216Ocn9cHO9VWG-16" target="4XdVAq216Ocn9cHO9VWG-20">
          <mxGeometry relative="1" as="geometry" />
        </mxCell>
        <mxCell id="4XdVAq216Ocn9cHO9VWG-16" value="判断是否支持提前结清" style="rhombus;whiteSpace=wrap;html=1;fillColor=#B2C9AB;strokeColor=#788AA3;fontColor=#46495D;rounded=0;labelBackgroundColor=none;" vertex="1" parent="4XdVAq216Ocn9cHO9VWG-2">
          <mxGeometry x="97.5" y="430" width="155" height="80" as="geometry" />
        </mxCell>
        <mxCell id="4XdVAq216Ocn9cHO9VWG-18" value="返回&lt;div&gt;系统暂不支持提前结清&lt;/div&gt;" style="whiteSpace=wrap;html=1;fillColor=#B2C9AB;strokeColor=#788AA3;fontColor=#46495D;rounded=0;labelBackgroundColor=none;" vertex="1" parent="4XdVAq216Ocn9cHO9VWG-2">
          <mxGeometry x="350" y="440" width="120" height="60" as="geometry" />
        </mxCell>
        <mxCell id="4XdVAq216Ocn9cHO9VWG-20" value="请求查询试算结果" style="whiteSpace=wrap;html=1;fillColor=#B2C9AB;strokeColor=#788AA3;fontColor=#46495D;rounded=0;labelBackgroundColor=none;" vertex="1" parent="4XdVAq216Ocn9cHO9VWG-2">
          <mxGeometry x="115" y="600" width="120" height="60" as="geometry" />
        </mxCell>
        <mxCell id="4XdVAq216Ocn9cHO9VWG-3" value="还款引擎repaytrade" style="swimlane;startSize=20;html=1;labelBackgroundColor=none;fillColor=#B2C9AB;strokeColor=#788AA3;fontColor=#46495D;" vertex="1" parent="4XdVAq216Ocn9cHO9VWG-1">
          <mxGeometry x="520" y="20" width="220" height="750" as="geometry" />
        </mxCell>
        <mxCell id="4XdVAq216Ocn9cHO9VWG-22" value="试算接口" style="whiteSpace=wrap;html=1;fillColor=#B2C9AB;strokeColor=#788AA3;fontColor=#46495D;rounded=0;labelBackgroundColor=none;" vertex="1" parent="4XdVAq216Ocn9cHO9VWG-3">
          <mxGeometry x="50" y="600" width="120" height="60" as="geometry" />
        </mxCell>
        <mxCell id="4XdVAq216Ocn9cHO9VWG-4" value="账务系统lcs" style="swimlane;startSize=20;html=1;labelBackgroundColor=none;fillColor=#B2C9AB;strokeColor=#788AA3;fontColor=#46495D;" vertex="1" parent="4XdVAq216Ocn9cHO9VWG-1">
          <mxGeometry x="740" y="20" width="200" height="750" as="geometry" />
        </mxCell>
        <mxCell id="4XdVAq216Ocn9cHO9VWG-8" value="查询还款计划接口" style="whiteSpace=wrap;html=1;fillColor=#B2C9AB;strokeColor=#788AA3;fontColor=#46495D;rounded=0;labelBackgroundColor=none;" vertex="1" parent="4XdVAq216Ocn9cHO9VWG-4">
          <mxGeometry x="39.999999999999545" y="170" width="120" height="60" as="geometry" />
        </mxCell>
        <mxCell id="4XdVAq216Ocn9cHO9VWG-9" style="edgeStyle=orthogonalEdgeStyle;rounded=0;orthogonalLoop=1;jettySize=auto;html=1;entryX=0;entryY=0.5;entryDx=0;entryDy=0;strokeColor=#788AA3;fontColor=#46495D;fillColor=#B2C9AB;" edge="1" parent="4XdVAq216Ocn9cHO9VWG-1" source="4XdVAq216Ocn9cHO9VWG-6" target="4XdVAq216Ocn9cHO9VWG-8">
          <mxGeometry relative="1" as="geometry" />
        </mxCell>
        <mxCell id="4XdVAq216Ocn9cHO9VWG-10" value="&lt;span style=&quot;color: rgb(221, 17, 68); font-family: Consolas, monospace, tahoma, Arial; font-size: 14px; text-align: left; text-wrap: wrap;&quot;&gt;lcs/pfcz/plan-list&lt;/span&gt;" style="edgeLabel;html=1;align=center;verticalAlign=middle;resizable=0;points=[];strokeColor=#788AA3;fontColor=#46495D;fillColor=#B2C9AB;" vertex="1" connectable="0" parent="4XdVAq216Ocn9cHO9VWG-9">
          <mxGeometry x="-0.0781" y="-1" relative="1" as="geometry">
            <mxPoint as="offset" />
          </mxGeometry>
        </mxCell>
        <mxCell id="4XdVAq216Ocn9cHO9VWG-23" style="edgeStyle=orthogonalEdgeStyle;rounded=0;orthogonalLoop=1;jettySize=auto;html=1;entryX=0;entryY=0.5;entryDx=0;entryDy=0;strokeColor=#788AA3;fontColor=#46495D;fillColor=#B2C9AB;" edge="1" parent="4XdVAq216Ocn9cHO9VWG-1" source="4XdVAq216Ocn9cHO9VWG-20" target="4XdVAq216Ocn9cHO9VWG-22">
          <mxGeometry relative="1" as="geometry" />
        </mxCell>
        <mxCell id="4XdVAq216Ocn9cHO9VWG-24" value="/repaytrade/query/repayCalculate" style="edgeLabel;html=1;align=center;verticalAlign=middle;resizable=0;points=[];strokeColor=#788AA3;fontColor=#46495D;fillColor=#B2C9AB;" vertex="1" connectable="0" parent="4XdVAq216Ocn9cHO9VWG-23">
          <mxGeometry x="-0.108" relative="1" as="geometry">
            <mxPoint as="offset" />
          </mxGeometry>
        </mxCell>
      </root>
    </mxGraphModel>
  </diagram>
</mxfile>
